# Blender 3.4.1
# www.blender.org
mtllib sphere.mtl
o Sphere
v 0.000000 0.809017 -0.587785
v 0.000000 0.587785 -0.809017
v 0.000000 0.309017 -0.951057
v 0.000000 0.000000 -1.000000
v 0.000000 -0.587785 -0.809017
v 0.000000 -0.809017 -0.587785
v 0.095492 0.951057 -0.293893
v 0.181636 0.809017 -0.559017
v 0.250000 0.587785 -0.769421
v 0.293893 0.309017 -0.904509
v 0.309017 0.000000 -0.951057
v 0.293893 -0.309017 -0.904509
v 0.250000 -0.587785 -0.769421
v 0.181636 -0.809017 -0.559017
v 0.095492 -0.951057 -0.293893
v 0.181636 0.951057 -0.250000
v 0.345492 0.809017 -0.475528
v 0.475528 0.587785 -0.654509
v 0.559017 0.309017 -0.769421
v 0.587785 0.000000 -0.809017
v 0.559017 -0.309017 -0.769421
v 0.475528 -0.587785 -0.654509
v 0.345492 -0.809017 -0.475528
v 0.181636 -0.951057 -0.250000
v 0.250000 0.951057 -0.181636
v 0.475528 0.809017 -0.345492
v 0.654509 0.587785 -0.475528
v 0.769421 0.309017 -0.559017
v 0.809017 0.000000 -0.587785
v 0.769421 -0.309017 -0.559017
v 0.654509 -0.587785 -0.475528
v 0.475528 -0.809017 -0.345492
v 0.250000 -0.951057 -0.181636
v 0.293893 0.951057 -0.095492
v 0.559017 0.809017 -0.181636
v 0.769421 0.587785 -0.250000
v 0.904509 0.309017 -0.293893
v 0.951057 0.000000 -0.309017
v 0.904509 -0.309017 -0.293893
v 0.769421 -0.587785 -0.250000
v 0.559017 -0.809017 -0.181636
v 0.293893 -0.951057 -0.095492
v 0.309017 0.951057 0.000000
v 0.587785 0.809017 0.000000
v 0.809017 0.587785 -0.000000
v 0.951057 0.309017 0.000000
v 1.000000 0.000000 0.000000
v 0.951057 -0.309017 0.000000
v 0.809017 -0.587785 -0.000000
v 0.587785 -0.809017 0.000000
v 0.309017 -0.951057 0.000000
v 0.293893 0.951057 0.095492
v 0.559017 0.809017 0.181636
v 0.769421 0.587785 0.250000
v 0.904509 0.309017 0.293893
v 0.951057 0.000000 0.309017
v 0.904509 -0.309017 0.293893
v 0.769421 -0.587785 0.250000
v 0.559017 -0.809017 0.181636
v 0.293893 -0.951057 0.095492
v 0.250000 0.951057 0.181636
v 0.475528 0.809017 0.345492
v 0.654509 0.587785 0.475528
v 0.769421 0.309017 0.559017
v 0.809017 0.000000 0.587785
v 0.769421 -0.309017 0.559017
v 0.654509 -0.587785 0.475528
v 0.475528 -0.809017 0.345492
v 0.250000 -0.951057 0.181636
v 0.181636 0.951057 0.250000
v 0.345492 0.809017 0.475528
v 0.475528 0.587785 0.654509
v 0.559017 0.309017 0.769421
v 0.587785 0.000000 0.809017
v 0.559017 -0.309017 0.769421
v 0.475528 -0.587785 0.654509
v 0.345492 -0.809017 0.475528
v 0.181636 -0.951057 0.250000
v 0.095492 0.951057 0.293893
v 0.181636 0.809017 0.559017
v 0.250000 0.587785 0.769421
v 0.293893 0.309017 0.904509
v 0.309017 0.000000 0.951057
v 0.293893 -0.309017 0.904509
v 0.250000 -0.587785 0.769421
v 0.181636 -0.809017 0.559017
v 0.095492 -0.951057 0.293893
v 0.000000 0.951057 0.309017
v -0.000000 0.809017 0.587785
v 0.000000 0.587785 0.809017
v -0.000000 0.309017 0.951057
v 0.000000 0.000000 1.000000
v -0.000000 -0.309017 0.951057
v 0.000000 -0.587785 0.809017
v -0.000000 -0.809017 0.587785
v 0.000000 -0.951057 0.309017
v 0.000000 1.000000 0.000000
v -0.095492 0.951057 0.293893
v -0.181636 0.809017 0.559017
v -0.250000 0.587785 0.769421
v -0.293893 0.309017 0.904509
v -0.309017 0.000000 0.951057
v -0.293893 -0.309017 0.904509
v -0.250000 -0.587785 0.769421
v -0.181636 -0.809017 0.559017
v -0.095492 -0.951057 0.293893
v -0.181636 0.951057 0.250000
v -0.345492 0.809017 0.475528
v -0.475528 0.587785 0.654509
v -0.559017 0.309017 0.769421
v -0.587785 0.000000 0.809017
v -0.559017 -0.309017 0.769421
v -0.475528 -0.587785 0.654509
v -0.345492 -0.809017 0.475528
v -0.181636 -0.951057 0.250000
v -0.250000 0.951057 0.181636
v -0.475528 0.809017 0.345492
v -0.654509 0.587785 0.475528
v -0.769421 0.309017 0.559017
v -0.809017 0.000000 0.587785
v -0.769421 -0.309017 0.559017
v -0.654509 -0.587785 0.475528
v -0.475528 -0.809017 0.345492
v -0.250000 -0.951057 0.181636
v 0.000000 -1.000000 0.000000
v -0.293893 0.951057 0.095492
v -0.559017 0.809017 0.181636
v -0.769421 0.587785 0.250000
v -0.904509 0.309017 0.293893
v -0.951057 0.000000 0.309017
v -0.904509 -0.309017 0.293893
v -0.769421 -0.587785 0.250000
v -0.559017 -0.809017 0.181636
v -0.293893 -0.951057 0.095492
v -0.309017 0.951057 0.000000
v -0.587785 0.809017 -0.000000
v -0.809017 0.587785 0.000000
v -0.951057 0.309017 -0.000000
v -1.000000 0.000000 0.000000
v -0.951057 -0.309017 -0.000000
v -0.809017 -0.587785 0.000000
v -0.587785 -0.809017 -0.000000
v -0.309017 -0.951057 0.000000
v -0.293893 0.951057 -0.095492
v -0.559017 0.809017 -0.181636
v -0.769421 0.587785 -0.250000
v -0.904509 0.309017 -0.293893
v -0.951057 0.000000 -0.309017
v -0.904509 -0.309017 -0.293893
v -0.769421 -0.587785 -0.250000
v -0.559017 -0.809017 -0.181636
v -0.293893 -0.951057 -0.095492
v -0.250000 0.951057 -0.181636
v -0.475528 0.809017 -0.345492
v -0.654509 0.587785 -0.475529
v -0.769421 0.309017 -0.559017
v -0.809017 0.000000 -0.587786
v -0.769421 -0.309017 -0.559017
v -0.654509 -0.587785 -0.475529
v -0.475528 -0.809017 -0.345492
v -0.250000 -0.951057 -0.181636
v -0.181636 0.951057 -0.250000
v -0.345492 0.809017 -0.475528
v -0.475529 0.587785 -0.654509
v -0.559017 0.309017 -0.769421
v -0.587786 0.000000 -0.809018
v -0.559017 -0.309017 -0.769421
v -0.475529 -0.587785 -0.654509
v -0.345492 -0.809017 -0.475528
v -0.181636 -0.951057 -0.250000
v -0.095492 0.951057 -0.293893
v -0.181636 0.809017 -0.559017
v -0.250000 0.587785 -0.769421
v -0.293893 0.309017 -0.904509
v -0.309017 0.000000 -0.951057
v -0.293893 -0.309017 -0.904509
v -0.250000 -0.587785 -0.769421
v -0.181636 -0.809017 -0.559017
v -0.095492 -0.951057 -0.293893
v -0.000000 0.951057 -0.309017
v 0.000000 -0.309017 -0.951057
v -0.000000 -0.951057 -0.309017
vn 0.1397 -0.4495 -0.8823
vn 0.1397 0.4495 -0.8823
vn 0.0248 0.9874 -0.1564
vn 0.1113 -0.7027 -0.7027
vn 0.1546 0.1546 -0.9758
vn 0.0717 0.8887 -0.4528
vn 0.0717 -0.8887 -0.4528
vn 0.1546 -0.1546 -0.9758
vn 0.1113 0.7027 -0.7027
vn 0.0248 -0.9874 -0.1564
vn 0.4055 0.4495 -0.7959
vn 0.0719 0.9874 -0.1411
vn 0.3230 -0.7027 -0.6339
vn 0.4485 0.1546 -0.8803
vn 0.2081 0.8887 -0.4085
vn 0.2081 -0.8887 -0.4085
vn 0.4485 -0.1546 -0.8803
vn 0.3230 0.7027 -0.6339
vn 0.0719 -0.9874 -0.1411
vn 0.4055 -0.4495 -0.7959
vn 0.1120 -0.9874 -0.1120
vn 0.6316 -0.4495 -0.6316
vn 0.6316 0.4495 -0.6316
vn 0.1120 0.9874 -0.1120
vn 0.5031 -0.7027 -0.5031
vn 0.6986 0.1546 -0.6986
vn 0.3242 0.8887 -0.3242
vn 0.3242 -0.8887 -0.3242
vn 0.6986 -0.1546 -0.6986
vn 0.5031 0.7027 -0.5031
vn 0.8803 -0.1546 -0.4485
vn 0.6339 0.7027 -0.3230
vn 0.1411 -0.9874 -0.0719
vn 0.7959 -0.4495 -0.4055
vn 0.7959 0.4495 -0.4055
vn 0.1411 0.9874 -0.0719
vn 0.6339 -0.7027 -0.3230
vn 0.8803 0.1546 -0.4485
vn 0.4085 0.8887 -0.2081
vn 0.4085 -0.8887 -0.2081
vn 0.4528 0.8887 -0.0717
vn 0.4528 -0.8887 -0.0717
vn 0.9758 -0.1546 -0.1546
vn 0.7027 0.7027 -0.1113
vn 0.1564 -0.9874 -0.0248
vn 0.8823 -0.4495 -0.1397
vn 0.8823 0.4495 -0.1397
vn 0.1564 0.9874 -0.0248
vn 0.7027 -0.7027 -0.1113
vn 0.9758 0.1546 -0.1546
vn 0.9758 0.1546 0.1546
vn 0.4528 0.8887 0.0717
vn 0.4528 -0.8887 0.0717
vn 0.9758 -0.1546 0.1546
vn 0.7027 0.7027 0.1113
vn 0.1564 -0.9874 0.0248
vn 0.8823 -0.4495 0.1397
vn 0.8823 0.4495 0.1397
vn 0.1564 0.9874 0.0248
vn 0.7027 -0.7027 0.1113
vn 0.1411 0.9874 0.0719
vn 0.6339 -0.7027 0.3230
vn 0.8803 0.1546 0.4485
vn 0.4085 0.8887 0.2081
vn 0.4085 -0.8887 0.2081
vn 0.8803 -0.1546 0.4485
vn 0.6339 0.7027 0.3230
vn 0.1411 -0.9874 0.0719
vn 0.7959 -0.4495 0.4055
vn 0.7959 0.4495 0.4055
vn 0.6316 -0.4495 0.6316
vn 0.6316 0.4495 0.6316
vn 0.1120 0.9874 0.1120
vn 0.5031 -0.7027 0.5031
vn 0.6986 0.1546 0.6986
vn 0.3242 0.8887 0.3242
vn 0.3242 -0.8887 0.3242
vn 0.6986 -0.1546 0.6986
vn 0.5031 0.7027 0.5031
vn 0.1120 -0.9874 0.1120
vn 0.3230 0.7027 0.6339
vn 0.0719 -0.9874 0.1411
vn 0.4055 -0.4495 0.7959
vn 0.4055 0.4495 0.7959
vn 0.0719 0.9874 0.1411
vn 0.3230 -0.7027 0.6339
vn 0.4485 0.1546 0.8803
vn 0.2081 0.8887 0.4085
vn 0.2081 -0.8887 0.4085
vn 0.4485 -0.1546 0.8803
vn 0.1546 -0.1546 0.9758
vn 0.1113 0.7027 0.7027
vn 0.0248 -0.9874 0.1564
vn 0.1397 -0.4495 0.8823
vn 0.1397 0.4495 0.8823
vn 0.0248 0.9874 0.1564
vn 0.1113 -0.7027 0.7027
vn 0.1546 0.1546 0.9758
vn 0.0717 0.8887 0.4528
vn 0.0717 -0.8887 0.4528
vn -0.0717 0.8887 0.4528
vn -0.0717 -0.8887 0.4528
vn -0.1546 -0.1546 0.9758
vn -0.1113 0.7027 0.7027
vn -0.0248 -0.9874 0.1564
vn -0.1397 -0.4495 0.8823
vn -0.1397 0.4495 0.8823
vn -0.0248 0.9874 0.1564
vn -0.1113 -0.7027 0.7027
vn -0.1546 0.1546 0.9758
vn -0.3230 -0.7027 0.6339
vn -0.4485 0.1546 0.8803
vn -0.2081 0.8887 0.4085
vn -0.2081 -0.8887 0.4085
vn -0.4485 -0.1546 0.8803
vn -0.3230 0.7027 0.6339
vn -0.0719 -0.9874 0.1411
vn -0.4055 -0.4495 0.7959
vn -0.4055 0.4495 0.7959
vn -0.0719 0.9874 0.1411
vn -0.6316 0.4495 0.6316
vn -0.1120 0.9874 0.1120
vn -0.5031 -0.7027 0.5031
vn -0.6986 0.1546 0.6986
vn -0.3242 0.8887 0.3242
vn -0.3242 -0.8887 0.3242
vn -0.6986 -0.1546 0.6986
vn -0.5031 0.7027 0.5031
vn -0.1120 -0.9874 0.1120
vn -0.6316 -0.4495 0.6316
vn -0.7959 -0.4495 0.4055
vn -0.7959 0.4495 0.4055
vn -0.1411 0.9874 0.0719
vn -0.6339 -0.7027 0.3230
vn -0.8803 0.1546 0.4485
vn -0.4085 0.8887 0.2081
vn -0.4085 -0.8887 0.2081
vn -0.8803 -0.1546 0.4485
vn -0.6339 0.7027 0.3230
vn -0.1411 -0.9874 0.0719
vn -0.7027 0.7027 0.1113
vn -0.1564 -0.9874 0.0248
vn -0.8823 -0.4495 0.1397
vn -0.8823 0.4495 0.1397
vn -0.1564 0.9874 0.0248
vn -0.7027 -0.7027 0.1113
vn -0.9758 0.1546 0.1546
vn -0.4528 0.8887 0.0717
vn -0.4528 -0.8887 0.0717
vn -0.9758 -0.1546 0.1546
vn -0.4528 -0.8887 -0.0717
vn -0.9758 -0.1546 -0.1546
vn -0.7027 0.7027 -0.1113
vn -0.1564 -0.9874 -0.0248
vn -0.8823 -0.4495 -0.1397
vn -0.8823 0.4495 -0.1397
vn -0.1564 0.9874 -0.0248
vn -0.7027 -0.7027 -0.1113
vn -0.9758 0.1546 -0.1546
vn -0.4528 0.8887 -0.0717
vn -0.8803 0.1546 -0.4485
vn -0.4085 0.8887 -0.2081
vn -0.4085 -0.8887 -0.2081
vn -0.8803 -0.1546 -0.4485
vn -0.6339 0.7027 -0.3230
vn -0.1411 -0.9874 -0.0719
vn -0.7959 -0.4495 -0.4055
vn -0.7959 0.4495 -0.4055
vn -0.1411 0.9874 -0.0719
vn -0.6339 -0.7027 -0.3230
vn -0.1120 0.9874 -0.1120
vn -0.5031 -0.7027 -0.5031
vn -0.6986 0.1546 -0.6986
vn -0.3242 0.8887 -0.3242
vn -0.3242 -0.8887 -0.3242
vn -0.6986 -0.1546 -0.6986
vn -0.5031 0.7027 -0.5031
vn -0.1120 -0.9874 -0.1120
vn -0.6316 -0.4495 -0.6316
vn -0.6316 0.4495 -0.6316
vn -0.4055 0.4495 -0.7959
vn -0.0719 0.9874 -0.1411
vn -0.3230 -0.7027 -0.6339
vn -0.4485 0.1546 -0.8803
vn -0.2081 0.8887 -0.4085
vn -0.2081 -0.8887 -0.4085
vn -0.4485 -0.1546 -0.8803
vn -0.3230 0.7027 -0.6339
vn -0.0719 -0.9874 -0.1411
vn -0.4055 -0.4495 -0.7959
vn -0.0248 -0.9874 -0.1564
vn -0.1397 -0.4495 -0.8823
vn -0.1397 0.4495 -0.8823
vn -0.0248 0.9874 -0.1564
vn -0.1113 -0.7027 -0.7027
vn -0.1546 0.1546 -0.9758
vn -0.0717 0.8887 -0.4528
vn -0.0717 -0.8887 -0.4528
vn -0.1546 -0.1546 -0.9758
vn -0.1113 0.7027 -0.7027
vt 0.750000 0.800000
vt 0.750000 0.700000
vt 0.750000 0.600000
vt 0.750000 0.500000
vt 0.750000 0.300000
vt 0.750000 0.200000
vt 0.700000 0.900000
vt 0.700000 0.800000
vt 0.700000 0.700000
vt 0.700000 0.600000
vt 0.700000 0.500000
vt 0.700000 0.400000
vt 0.700000 0.300000
vt 0.700000 0.200000
vt 0.700000 0.100000
vt 0.650000 0.900000
vt 0.650000 0.800000
vt 0.650000 0.700000
vt 0.650000 0.600000
vt 0.650000 0.500000
vt 0.650000 0.400000
vt 0.650000 0.300000
vt 0.650000 0.200000
vt 0.650000 0.100000
vt 0.600000 0.900000
vt 0.600000 0.800000
vt 0.600000 0.700000
vt 0.600000 0.600000
vt 0.600000 0.500000
vt 0.600000 0.400000
vt 0.600000 0.300000
vt 0.600000 0.200000
vt 0.600000 0.100000
vt 0.550000 0.900000
vt 0.550000 0.800000
vt 0.550000 0.700000
vt 0.550000 0.600000
vt 0.550000 0.500000
vt 0.550000 0.400000
vt 0.550000 0.300000
vt 0.550000 0.200000
vt 0.550000 0.100000
vt 0.500000 0.900000
vt 0.500000 0.800000
vt 0.500000 0.700000
vt 0.500000 0.600000
vt 0.500000 0.500000
vt 0.500000 0.400000
vt 0.500000 0.300000
vt 0.500000 0.200000
vt 0.500000 0.100000
vt 0.450000 0.900000
vt 0.450000 0.800000
vt 0.450000 0.700000
vt 0.450000 0.600000
vt 0.450000 0.500000
vt 0.450000 0.400000
vt 0.450000 0.300000
vt 0.450000 0.200000
vt 0.450000 0.100000
vt 0.400000 0.900000
vt 0.400000 0.800000
vt 0.400000 0.700000
vt 0.400000 0.600000
vt 0.400000 0.500000
vt 0.400000 0.400000
vt 0.400000 0.300000
vt 0.400000 0.200000
vt 0.400000 0.100000
vt 0.350000 0.900000
vt 0.350000 0.800000
vt 0.350000 0.700000
vt 0.350000 0.600000
vt 0.350000 0.500000
vt 0.350000 0.400000
vt 0.350000 0.300000
vt 0.350000 0.200000
vt 0.350000 0.100000
vt 0.300000 0.900000
vt 0.300000 0.800000
vt 0.300000 0.700000
vt 0.300000 0.600000
vt 0.300000 0.500000
vt 0.300000 0.400000
vt 0.300000 0.300000
vt 0.300000 0.200000
vt 0.300000 0.100000
vt 0.250000 0.900000
vt 0.250000 0.800000
vt 0.250000 0.700000
vt 0.250000 0.600000
vt 0.250000 0.500000
vt 0.250000 0.400000
vt 0.250000 0.300000
vt 0.250000 0.200000
vt 0.250000 0.100000
vt 0.725000 1.000000
vt 0.675000 1.000000
vt 0.625000 1.000000
vt 0.575000 1.000000
vt 0.525000 1.000000
vt 0.475000 1.000000
vt 0.425000 1.000000
vt 0.375000 1.000000
vt 0.325000 1.000000
vt 0.275000 1.000000
vt 0.225000 1.000000
vt 0.175000 1.000000
vt 0.125000 1.000000
vt 0.075000 1.000000
vt 0.025000 1.000000
vt 0.975000 1.000000
vt 0.925000 1.000000
vt 0.875000 1.000000
vt 0.825000 1.000000
vt 0.775000 1.000000
vt 0.200000 0.900000
vt 0.200000 0.800000
vt 0.200000 0.700000
vt 0.200000 0.600000
vt 0.200000 0.500000
vt 0.200000 0.400000
vt 0.200000 0.300000
vt 0.200000 0.200000
vt 0.200000 0.100000
vt 0.150000 0.900000
vt 0.150000 0.800000
vt 0.150000 0.700000
vt 0.150000 0.600000
vt 0.150000 0.500000
vt 0.150000 0.400000
vt 0.150000 0.300000
vt 0.150000 0.200000
vt 0.150000 0.100000
vt 0.100000 0.900000
vt 0.100000 0.800000
vt 0.100000 0.700000
vt 0.100000 0.600000
vt 0.100000 0.500000
vt 0.100000 0.400000
vt 0.100000 0.300000
vt 0.100000 0.200000
vt 0.100000 0.100000
vt 0.725000 0.000000
vt 0.675000 0.000000
vt 0.625000 0.000000
vt 0.575000 0.000000
vt 0.525000 0.000000
vt 0.475000 0.000000
vt 0.425000 0.000000
vt 0.375000 0.000000
vt 0.325000 0.000000
vt 0.275000 0.000000
vt 0.225000 0.000000
vt 0.175000 0.000000
vt 0.125000 0.000000
vt 0.075000 0.000000
vt 0.025000 0.000000
vt 0.975000 0.000000
vt 0.925000 0.000000
vt 0.875000 0.000000
vt 0.825000 0.000000
vt 0.775000 0.000000
vt 0.050000 0.900000
vt 0.050000 0.800000
vt 0.050000 0.700000
vt 0.050000 0.600000
vt 0.050000 0.500000
vt 0.050000 0.400000
vt 0.050000 0.300000
vt 0.050000 0.200000
vt 0.050000 0.100000
vt 0.000000 0.900000
vt 1.000000 0.900000
vt 0.000000 0.800000
vt 1.000000 0.800000
vt 0.000000 0.700000
vt 1.000000 0.700000
vt 0.000000 0.600000
vt 1.000000 0.600000
vt 0.000000 0.500000
vt 1.000000 0.500000
vt 0.000000 0.400000
vt 1.000000 0.400000
vt 0.000000 0.300000
vt 1.000000 0.300000
vt 0.000000 0.200000
vt 1.000000 0.200000
vt 0.000000 0.100000
vt 1.000000 0.100000
vt 0.950000 0.900000
vt 0.950000 0.800000
vt 0.950000 0.700000
vt 0.950000 0.600000
vt 0.950000 0.500000
vt 0.950000 0.400000
vt 0.950000 0.300000
vt 0.950000 0.200000
vt 0.950000 0.100000
vt 0.900000 0.900000
vt 0.900000 0.800000
vt 0.900000 0.700000
vt 0.900000 0.600000
vt 0.900000 0.500000
vt 0.900000 0.400000
vt 0.900000 0.300000
vt 0.900000 0.200000
vt 0.900000 0.100000
vt 0.850000 0.900000
vt 0.850000 0.800000
vt 0.850000 0.700000
vt 0.850000 0.600000
vt 0.850000 0.500000
vt 0.850000 0.400000
vt 0.850000 0.300000
vt 0.850000 0.200000
vt 0.850000 0.100000
vt 0.800000 0.900000
vt 0.800000 0.800000
vt 0.800000 0.700000
vt 0.800000 0.600000
vt 0.800000 0.500000
vt 0.800000 0.400000
vt 0.800000 0.300000
vt 0.800000 0.200000
vt 0.800000 0.100000
vt 0.750000 0.900000
vt 0.750000 0.400000
vt 0.750000 0.100000
s 0
f 5/5/1 181/228/1 12/12/1 13/13/1
f 3/3/2 2/2/2 9/9/2 10/10/2
f 180/227/3 97/97/3 7/7/3
f 6/6/4 5/5/4 13/13/4 14/14/4
f 4/4/5 3/3/5 10/10/5 11/11/5
f 1/1/6 180/227/6 7/7/6 8/8/6
f 182/229/7 6/6/7 14/14/7 15/15/7
f 181/228/8 4/4/8 11/11/8 12/12/8
f 2/2/9 1/1/9 8/8/9 9/9/9
f 125/144/10 182/229/10 15/15/10
f 10/10/11 9/9/11 18/18/11 19/19/11
f 7/7/12 97/98/12 16/16/12
f 14/14/13 13/13/13 22/22/13 23/23/13
f 11/11/14 10/10/14 19/19/14 20/20/14
f 8/8/15 7/7/15 16/16/15 17/17/15
f 15/15/16 14/14/16 23/23/16 24/24/16
f 12/12/17 11/11/17 20/20/17 21/21/17
f 9/9/18 8/8/18 17/17/18 18/18/18
f 125/145/19 15/15/19 24/24/19
f 13/13/20 12/12/20 21/21/20 22/22/20
f 125/146/21 24/24/21 33/33/21
f 22/22/22 21/21/22 30/30/22 31/31/22
f 19/19/23 18/18/23 27/27/23 28/28/23
f 16/16/24 97/99/24 25/25/24
f 23/23/25 22/22/25 31/31/25 32/32/25
f 20/20/26 19/19/26 28/28/26 29/29/26
f 17/17/27 16/16/27 25/25/27 26/26/27
f 24/24/28 23/23/28 32/32/28 33/33/28
f 21/21/29 20/20/29 29/29/29 30/30/29
f 18/18/30 17/17/30 26/26/30 27/27/30
f 30/30/31 29/29/31 38/38/31 39/39/31
f 27/27/32 26/26/32 35/35/32 36/36/32
f 125/147/33 33/33/33 42/42/33
f 31/31/34 30/30/34 39/39/34 40/40/34
f 28/28/35 27/27/35 36/36/35 37/37/35
f 25/25/36 97/100/36 34/34/36
f 32/32/37 31/31/37 40/40/37 41/41/37
f 29/29/38 28/28/38 37/37/38 38/38/38
f 26/26/39 25/25/39 34/34/39 35/35/39
f 33/33/40 32/32/40 41/41/40 42/42/40
f 35/35/41 34/34/41 43/43/41 44/44/41
f 42/42/42 41/41/42 50/50/42 51/51/42
f 39/39/43 38/38/43 47/47/43 48/48/43
f 36/36/44 35/35/44 44/44/44 45/45/44
f 125/148/45 42/42/45 51/51/45
f 40/40/46 39/39/46 48/48/46 49/49/46
f 37/37/47 36/36/47 45/45/47 46/46/47
f 34/34/48 97/101/48 43/43/48
f 41/41/49 40/40/49 49/49/49 50/50/49
f 38/38/50 37/37/50 46/46/50 47/47/50
f 47/47/51 46/46/51 55/55/51 56/56/51
f 44/44/52 43/43/52 52/52/52 53/53/52
f 51/51/53 50/50/53 59/59/53 60/60/53
f 48/48/54 47/47/54 56/56/54 57/57/54
f 45/45/55 44/44/55 53/53/55 54/54/55
f 125/149/56 51/51/56 60/60/56
f 49/49/57 48/48/57 57/57/57 58/58/57
f 46/46/58 45/45/58 54/54/58 55/55/58
f 43/43/59 97/102/59 52/52/59
f 50/50/60 49/49/60 58/58/60 59/59/60
f 52/52/61 97/103/61 61/61/61
f 59/59/62 58/58/62 67/67/62 68/68/62
f 56/56/63 55/55/63 64/64/63 65/65/63
f 53/53/64 52/52/64 61/61/64 62/62/64
f 60/60/65 59/59/65 68/68/65 69/69/65
f 57/57/66 56/56/66 65/65/66 66/66/66
f 54/54/67 53/53/67 62/62/67 63/63/67
f 125/150/68 60/60/68 69/69/68
f 58/58/69 57/57/69 66/66/69 67/67/69
f 55/55/70 54/54/70 63/63/70 64/64/70
f 67/67/71 66/66/71 75/75/71 76/76/71
f 64/64/72 63/63/72 72/72/72 73/73/72
f 61/61/73 97/104/73 70/70/73
f 68/68/74 67/67/74 76/76/74 77/77/74
f 65/65/75 64/64/75 73/73/75 74/74/75
f 62/62/76 61/61/76 70/70/76 71/71/76
f 69/69/77 68/68/77 77/77/77 78/78/77
f 66/66/78 65/65/78 74/74/78 75/75/78
f 63/63/79 62/62/79 71/71/79 72/72/79
f 125/151/80 69/69/80 78/78/80
f 72/72/81 71/71/81 80/80/81 81/81/81
f 125/152/82 78/78/82 87/87/82
f 76/76/83 75/75/83 84/84/83 85/85/83
f 73/73/84 72/72/84 81/81/84 82/82/84
f 70/70/85 97/105/85 79/79/85
f 77/77/86 76/76/86 85/85/86 86/86/86
f 74/74/87 73/73/87 82/82/87 83/83/87
f 71/71/88 70/70/88 79/79/88 80/80/88
f 78/78/89 77/77/89 86/86/89 87/87/89
f 75/75/90 74/74/90 83/83/90 84/84/90
f 84/84/91 83/83/91 92/92/91 93/93/91
f 81/81/92 80/80/92 89/89/92 90/90/92
f 125/153/93 87/87/93 96/96/93
f 85/85/94 84/84/94 93/93/94 94/94/94
f 82/82/95 81/81/95 90/90/95 91/91/95
f 79/79/96 97/106/96 88/88/96
f 86/86/97 85/85/97 94/94/97 95/95/97
f 83/83/98 82/82/98 91/91/98 92/92/98
f 80/80/99 79/79/99 88/88/99 89/89/99
f 87/87/100 86/86/100 95/95/100 96/96/100
f 89/89/101 88/88/101 98/117/101 99/118/101
f 96/96/102 95/95/102 105/124/102 106/125/102
f 93/93/103 92/92/103 102/121/103 103/122/103
f 90/90/104 89/89/104 99/118/104 100/119/104
f 125/154/105 96/96/105 106/125/105
f 94/94/106 93/93/106 103/122/106 104/123/106
f 91/91/107 90/90/107 100/119/107 101/120/107
f 88/88/108 97/107/108 98/117/108
f 95/95/109 94/94/109 104/123/109 105/124/109
f 92/92/110 91/91/110 101/120/110 102/121/110
f 105/124/111 104/123/111 113/132/111 114/133/111
f 102/121/112 101/120/112 110/129/112 111/130/112
f 99/118/113 98/117/113 107/126/113 108/127/113
f 106/125/114 105/124/114 114/133/114 115/134/114
f 103/122/115 102/121/115 111/130/115 112/131/115
f 100/119/116 99/118/116 108/127/116 109/128/116
f 125/155/117 106/125/117 115/134/117
f 104/123/118 103/122/118 112/131/118 113/132/118
f 101/120/119 100/119/119 109/128/119 110/129/119
f 98/117/120 97/108/120 107/126/120
f 110/129/121 109/128/121 118/137/121 119/138/121
f 107/126/122 97/109/122 116/135/122
f 114/133/123 113/132/123 122/141/123 123/142/123
f 111/130/124 110/129/124 119/138/124 120/139/124
f 108/127/125 107/126/125 116/135/125 117/136/125
f 115/134/126 114/133/126 123/142/126 124/143/126
f 112/131/127 111/130/127 120/139/127 121/140/127
f 109/128/128 108/127/128 117/136/128 118/137/128
f 125/156/129 115/134/129 124/143/129
f 113/132/130 112/131/130 121/140/130 122/141/130
f 122/141/131 121/140/131 131/169/131 132/170/131
f 119/138/132 118/137/132 128/166/132 129/167/132
f 116/135/133 97/110/133 126/164/133
f 123/142/134 122/141/134 132/170/134 133/171/134
f 120/139/135 119/138/135 129/167/135 130/168/135
f 117/136/136 116/135/136 126/164/136 127/165/136
f 124/143/137 123/142/137 133/171/137 134/172/137
f 121/140/138 120/139/138 130/168/138 131/169/138
f 118/137/139 117/136/139 127/165/139 128/166/139
f 125/157/140 124/143/140 134/172/140
f 128/166/141 127/165/141 136/175/141 137/177/141
f 125/158/142 134/172/142 143/189/142
f 132/170/143 131/169/143 140/183/143 141/185/143
f 129/167/144 128/166/144 137/177/144 138/179/144
f 126/164/145 97/111/145 135/173/145
f 133/171/146 132/170/146 141/185/146 142/187/146
f 130/168/147 129/167/147 138/179/147 139/181/147
f 127/165/148 126/164/148 135/173/148 136/175/148
f 134/172/149 133/171/149 142/187/149 143/189/149
f 131/169/150 130/168/150 139/181/150 140/183/150
f 143/190/151 142/188/151 151/198/151 152/199/151
f 140/184/152 139/182/152 148/195/152 149/196/152
f 137/178/153 136/176/153 145/192/153 146/193/153
f 125/159/154 143/190/154 152/199/154
f 141/186/155 140/184/155 149/196/155 150/197/155
f 138/180/156 137/178/156 146/193/156 147/194/156
f 135/174/157 97/112/157 144/191/157
f 142/188/158 141/186/158 150/197/158 151/198/158
f 139/182/159 138/180/159 147/194/159 148/195/159
f 136/176/160 135/174/160 144/191/160 145/192/160
f 148/195/161 147/194/161 156/203/161 157/204/161
f 145/192/162 144/191/162 153/200/162 154/201/162
f 152/199/163 151/198/163 160/207/163 161/208/163
f 149/196/164 148/195/164 157/204/164 158/205/164
f 146/193/165 145/192/165 154/201/165 155/202/165
f 125/160/166 152/199/166 161/208/166
f 150/197/167 149/196/167 158/205/167 159/206/167
f 147/194/168 146/193/168 155/202/168 156/203/168
f 144/191/169 97/113/169 153/200/169
f 151/198/170 150/197/170 159/206/170 160/207/170
f 153/200/171 97/114/171 162/209/171
f 160/207/172 159/206/172 168/215/172 169/216/172
f 157/204/173 156/203/173 165/212/173 166/213/173
f 154/201/174 153/200/174 162/209/174 163/210/174
f 161/208/175 160/207/175 169/216/175 170/217/175
f 158/205/176 157/204/176 166/213/176 167/214/176
f 155/202/177 154/201/177 163/210/177 164/211/177
f 125/161/178 161/208/178 170/217/178
f 159/206/179 158/205/179 167/214/179 168/215/179
f 156/203/180 155/202/180 164/211/180 165/212/180
f 165/212/181 164/211/181 173/220/181 174/221/181
f 162/209/182 97/115/182 171/218/182
f 169/216/183 168/215/183 177/224/183 178/225/183
f 166/213/184 165/212/184 174/221/184 175/222/184
f 163/210/185 162/209/185 171/218/185 172/219/185
f 170/217/186 169/216/186 178/225/186 179/226/186
f 167/214/187 166/213/187 175/222/187 176/223/187
f 164/211/188 163/210/188 172/219/188 173/220/188
f 125/162/189 170/217/189 179/226/189
f 168/215/190 167/214/190 176/223/190 177/224/190
f 125/163/191 179/226/191 182/229/191
f 177/224/192 176/223/192 181/228/192 5/5/192
f 174/221/193 173/220/193 2/2/193 3/3/193
f 171/218/194 97/116/194 180/227/194
f 178/225/195 177/224/195 5/5/195 6/6/195
f 175/222/196 174/221/196 3/3/196 4/4/196
f 172/219/197 171/218/197 180/227/197 1/1/197
f 179/226/198 178/225/198 6/6/198 182/229/198
f 176/223/199 175/222/199 4/4/199 181/228/199
f 173/220/200 172/219/200 1/1/200 2/2/200
